<?xml version="1.0" encoding="utf-8"?>
<!-- Generator: Adobe Illustrator 16.0.4, SVG Export Plug-In . SVG Version: 6.00 Build 0)  -->
<!DOCTYPE svg PUBLIC "-//W3C//DTD SVG 1.1//EN" "http://www.w3.org/Graphics/SVG/1.1/DTD/svg11.dtd">
<svg version="1.1" id="Layer_1" xmlns="http://www.w3.org/2000/svg" xmlns:xlink="http://www.w3.org/1999/xlink" x="0px" y="0px"
	 width="90.667px" height="70.667px" viewBox="0 0 90.667 70.667" enable-background="new 0 0 90.667 70.667" xml:space="preserve">
<g>
	<g>
		<g>
			<path fill="#7B7C7F" d="M8.051,6.741c0-0.175,0.14-0.333,0.315-0.333h4.276c3.382,0,6.151,2.751,6.151,6.116
				c0,3.4-2.769,6.151-6.151,6.151H8.367c-0.175,0-0.315-0.158-0.315-0.333V6.741z M12.467,16.083c1.98,0,3.417-1.56,3.417-3.558
				c0-1.98-1.437-3.54-3.417-3.54h-1.683v7.098H12.467z"/>
			<path fill="#7B7C7F" d="M26.331,6.233c3.505,0,6.31,2.821,6.31,6.327c0,3.505-2.804,6.292-6.31,6.292
				c-3.505,0-6.291-2.787-6.291-6.292C20.04,9.054,22.826,6.233,26.331,6.233z M26.331,16.047c1.928,0,3.505-1.577,3.505-3.487
				c0-1.928-1.577-3.522-3.505-3.522c-1.91,0-3.487,1.595-3.487,3.522C22.843,14.47,24.421,16.047,26.331,16.047z"/>
			<path fill="#7B7C7F" d="M40.16,6.233c3.505,0,6.31,2.821,6.31,6.327c0,3.505-2.805,6.292-6.31,6.292
				c-3.505,0-6.292-2.787-6.292-6.292C33.868,9.054,36.654,6.233,40.16,6.233z M40.16,16.047c1.928,0,3.505-1.577,3.505-3.487
				c0-1.928-1.577-3.522-3.505-3.522c-1.91,0-3.488,1.595-3.488,3.522C36.672,14.47,38.25,16.047,40.16,16.047z"/>
			<path fill="#7B7C7F" d="M48.59,6.741c0-0.175,0.14-0.333,0.333-0.333h5.24c2.104,0,3.82,1.7,3.82,3.786
				c0,1.612-1.069,2.909-2.594,3.522l2.4,4.451c0.123,0.228,0,0.508-0.297,0.508h-2.332c-0.14,0-0.244-0.087-0.279-0.158
				l-2.332-4.644h-1.209v4.469c0,0.175-0.157,0.333-0.332,0.333h-2.086c-0.193,0-0.333-0.158-0.333-0.333V6.741z M53.935,11.648
				c0.719,0,1.332-0.666,1.332-1.402c0-0.736-0.613-1.332-1.332-1.332h-2.594v2.734H53.935z"/>
			<path fill="#7B7C7F" d="M59.632,17.011l0.823-1.454c0.141-0.228,0.474-0.193,0.596-0.105c0.071,0.035,1.332,0.964,2.489,0.964
				c0.701,0,1.209-0.438,1.209-1.051c0-0.736-0.613-1.297-1.805-1.77c-1.508-0.596-3.4-1.77-3.4-3.874
				c0-1.734,1.35-3.487,4.049-3.487c1.822,0,3.225,0.929,3.75,1.314c0.21,0.123,0.176,0.438,0.105,0.561l-0.895,1.349
				c-0.122,0.193-0.438,0.351-0.596,0.228c-0.157-0.088-1.437-1.052-2.506-1.052c-0.631,0-1.104,0.42-1.104,0.894
				c0,0.648,0.525,1.139,1.91,1.7c1.366,0.543,3.54,1.612,3.54,3.996c0,1.805-1.56,3.627-4.137,3.627
				c-2.278,0-3.539-0.946-3.942-1.35C59.544,17.326,59.492,17.256,59.632,17.011z"/>
			<path fill="#7B7C7F" d="M75.931,11.999v-0.052l-0.35-0.368c-0.701-0.736-1.156-1.49-1.156-2.506c0-1.332,1.156-2.839,3.399-2.839
				c1.998,0,3.505,1.297,3.505,2.927c0,1.928-1.91,2.962-1.91,3.102l1.577,1.612c0.228-0.368,0.456-0.929,0.579-1.35
				c0.104-0.368,0.209-0.648,0.684-0.473l1.279,0.456c0.49,0.175,0.297,0.596,0.228,0.806c-0.421,1.227-1.104,2.156-1.104,2.191
				l1.489,1.384c0.229,0.21,0.403,0.368-0.035,0.806l-0.981,0.999c-0.21,0.193-0.508,0.229-0.788-0.052l-1.139-1.14
				c0,0-1.192,1.35-3.821,1.35c-2.242,0-3.855-1.507-3.855-3.33C73.531,12.998,75.931,11.999,75.931,11.999z M77.685,16.661
				c1.366,0,1.892-0.895,1.892-0.895l-2.295-2.436c0,0-1.245,0.421-1.245,1.84C76.037,16.012,76.755,16.661,77.685,16.661z
				 M79.086,9.317c0-0.596-0.543-1.122-1.297-1.122c-0.648,0-1.034,0.403-1.034,0.858c0,0.526,0.351,0.859,0.807,1.367l0.385,0.386
				C77.947,10.807,79.086,10.299,79.086,9.317z"/>
			<path fill="#7B7C7F" d="M7.403,20.919c-0.062-0.218,0.062-0.373,0.28-0.373H9.5c0.125,0,0.249,0.109,0.28,0.218l1.336,5.267
				h0.062l2.408-5.469c0.046-0.093,0.14-0.171,0.264-0.171h0.28c0.14,0,0.233,0.078,0.264,0.171l2.408,5.469h0.062l1.336-5.267
				c0.031-0.109,0.155-0.218,0.279-0.218h1.818c0.217,0,0.341,0.155,0.279,0.373L17.642,31.36c-0.031,0.125-0.155,0.217-0.279,0.217
				h-0.249c-0.109,0-0.218-0.077-0.264-0.171l-2.844-6.354H13.96l-2.828,6.354c-0.047,0.094-0.156,0.171-0.264,0.171H10.62
				c-0.125,0-0.249-0.093-0.28-0.217L7.403,20.919z"/>
			<path fill="#7B7C7F" d="M22.24,20.842c0-0.156,0.14-0.295,0.295-0.295h1.864c0.156,0,0.295,0.14,0.295,0.295v10.286
				c0,0.155-0.14,0.295-0.295,0.295h-1.864c-0.155,0-0.295-0.14-0.295-0.295V20.842z"/>
			<path fill="#7B7C7F" d="M27.351,20.671c0-0.155,0.14-0.28,0.295-0.28h0.388l6.2,5.966h0.016v-5.516
				c0-0.156,0.125-0.295,0.295-0.295h1.865c0.155,0,0.295,0.14,0.295,0.295v10.457c0,0.155-0.14,0.279-0.295,0.279H36.16
				c-0.046,0-0.171-0.046-0.202-0.077l-6.137-6.168h-0.016v5.795c0,0.155-0.125,0.295-0.295,0.295h-1.849
				c-0.156,0-0.295-0.14-0.295-0.295L27.351,20.671z"/>
			<path fill="#7B7C7F" d="M39.375,20.842c0-0.156,0.124-0.295,0.28-0.295h3.791c2.999,0,5.454,2.439,5.454,5.423
				c0,3.014-2.455,5.453-5.454,5.453h-3.791c-0.156,0-0.28-0.14-0.28-0.295V20.842z M43.29,29.123c1.756,0,3.029-1.383,3.029-3.154
				c0-1.756-1.273-3.139-3.029-3.139h-1.491v6.292H43.29z"/>
			<path fill="#7B7C7F" d="M55.578,20.391c3.108,0,5.594,2.501,5.594,5.609c0,3.108-2.485,5.578-5.594,5.578
				C52.47,31.578,50,29.108,50,26C50,22.893,52.47,20.391,55.578,20.391z M55.578,29.092c1.709,0,3.108-1.398,3.108-3.092
				c0-1.709-1.399-3.123-3.108-3.123c-1.693,0-3.092,1.414-3.092,3.123C52.486,27.694,53.884,29.092,55.578,29.092z"/>
			<path fill="#7B7C7F" d="M62.008,20.919c-0.062-0.218,0.063-0.373,0.28-0.373h1.818c0.124,0,0.248,0.109,0.279,0.218l1.336,5.267
				h0.062l2.408-5.469c0.047-0.093,0.14-0.171,0.264-0.171h0.279c0.141,0,0.233,0.078,0.265,0.171l2.408,5.469h0.062l1.336-5.267
				c0.03-0.109,0.155-0.218,0.279-0.218h1.818c0.218,0,0.342,0.155,0.279,0.373L72.248,31.36c-0.031,0.125-0.155,0.217-0.279,0.217
				H71.72c-0.109,0-0.219-0.077-0.266-0.171l-2.843-6.354h-0.047l-2.827,6.354c-0.047,0.094-0.155,0.171-0.265,0.171h-0.249
				c-0.123,0-0.248-0.093-0.279-0.217L62.008,20.919z"/>
			<path fill="#7B7C7F" d="M76.27,29.947l0.73-1.29c0.124-0.202,0.419-0.171,0.528-0.093c0.062,0.031,1.181,0.854,2.206,0.854
				c0.622,0,1.072-0.388,1.072-0.932c0-0.652-0.544-1.149-1.601-1.569c-1.336-0.528-3.014-1.569-3.014-3.434
				c0-1.538,1.195-3.092,3.589-3.092c1.615,0,2.858,0.823,3.325,1.165c0.187,0.109,0.154,0.389,0.093,0.498l-0.793,1.196
				c-0.108,0.171-0.388,0.311-0.528,0.202c-0.14-0.078-1.273-0.932-2.221-0.932c-0.561,0-0.979,0.373-0.979,0.792
				c0,0.575,0.466,1.01,1.693,1.507c1.212,0.482,3.139,1.43,3.139,3.543c0,1.601-1.383,3.216-3.667,3.216
				c-2.02,0-3.138-0.839-3.496-1.196C76.193,30.226,76.146,30.164,76.27,29.947z"/>
		</g>
		<path fill="none" stroke="#F58023" stroke-width="6.1763" stroke-miterlimit="10" d="M26.044,43.582"/>
		<rect x="20.828" y="34.819" fill="#F58220" width="11.741" height="10.157"/>
		<rect x="33.736" y="34.819" fill="#F47921" width="11.743" height="10.157"/>
		<rect x="46.644" y="34.819" fill="#F36F21" width="11.74" height="10.157"/>
		<rect x="59.554" y="34.819" fill="#F26522" width="11.738" height="10.157"/>
		<rect x="72.461" y="34.819" fill="#F15A22" width="11.741" height="10.157"/>
		<g>
			<path fill="#F58220" d="M11.233,40.323h-0.646v1.139h0.725c0.312,0,0.575-0.254,0.575-0.583
				C11.887,40.561,11.543,40.323,11.233,40.323z"/>
			<path fill="#F58220" d="M11.767,38.712c0-0.318-0.254-0.543-0.559-0.543h-0.621v1.117h0.621
				C11.513,39.285,11.767,39.031,11.767,38.712z"/>
			<path fill="#F58220" d="M7.92,34.819v10.157H19.66V34.819H7.92z M11.471,42.603H9.495c-0.087,0-0.151-0.071-0.151-0.151v-5.28
				c0-0.077,0.064-0.149,0.151-0.149h1.858c0.942,0,1.713,0.645,1.713,1.483c0,0.612-0.551,1.058-0.925,1.258
				c0.422,0.174,1.07,0.567,1.07,1.302C13.212,41.958,12.421,42.603,11.471,42.603z M18.262,37.251l-1.786,2.657v2.543
				c0,0.08-0.072,0.151-0.151,0.151h-0.95c-0.086,0-0.151-0.071-0.151-0.151v-2.534l-1.762-2.666c-0.064-0.102,0-0.229,0.127-0.229
				h1.037c0.064,0,0.103,0.037,0.129,0.072l1.108,1.633l1.106-1.633c0.024-0.035,0.057-0.072,0.127-0.072h1.039
				C18.262,37.022,18.326,37.15,18.262,37.251z"/>
		</g>
	</g>
	<g id="bangatext_x5F_orange.psd">
		
			<image overflow="visible" width="1614" height="539" id="bangatext_x5F_orange" xlink:href="4B0A2260AF959291.png"  transform="matrix(0.0525 0 0 0.0525 2.5679 44.1401)">
		</image>
	</g>
</g>
</svg>
